<?xml version="1.0" encoding="UTF-8"?>
<!DOCTYPE svg PUBLIC "-//W3C//DTD SVG 1.1//EN"
  "http://www.w3.org/Graphics/SVG/1.1/DTD/svg11.dtd">
<!-- Created with Inkpad (http://www.taptrix.com/) --><svg xmlns:inkpad="http://taptrix.com/inkpad/svg_extensions" height="44pt" xmlns:xlink="http://www.w3.org/1999/xlink" xmlns="http://www.w3.org/2000/svg" width="43pt" version="1.1" viewBox="0,0,43,44">
<defs/>
<g id="Untitled" inkpad:layerName="Untitled">
<g opacity="1">
<path d="M0+21.8979L0+43.7958L21.4025+43.7958L42.805+43.7958L42.805+21.8979L42.805-6.52609e-07L21.4025-6.52609e-07L0-6.52609e-07L0+21.8979ZM11.1351+7.46264C12.0224+8.23851+14.4991+10.6172+15.2011+11.3726L15.7277+11.9341L14.8209+12.9346C14.3138+13.4858+13.8751+13.935+13.8361+13.935C13.8068+13.935+12.6367+12.761+11.2327+11.3318L8.69751+8.71833L9.47755+7.77912C9.90658+7.25847+10.2966+6.83991+10.3454+6.83991C10.3844+6.83991+10.7451+7.11554+11.1351+7.46264ZM34.3025+21.8162L34.2732+34.6589L34.0587+35.3021C33.7857+36.1494+33.4542+36.5782+32.8302+36.8947C32.0111+37.3234+31.0166+37.4664+29.0762+37.4561C28.1206+37.4459+27.0188+37.4153+26.619+37.3745L25.8975+37.3132L25.6342+35.9555L25.3807+34.5875L25.683+34.6487C25.8488+34.6794+26.8433+34.7406+27.8964+34.7712C30.0122+34.8529+30.6168+34.761+31.1043+34.3323C31.6991+33.8116+31.6893+34.1077+31.6893+22.439L31.6893+11.8422L24.6689+11.8422L17.6485+11.8422L17.6485+10.413L17.6485+8.98376L25.9853+8.98376L34.3317+8.98376L34.3025+21.8162ZM11.1156+25.6752L11.1156+37.5684L9.79932+37.5684L8.48299+37.5684L8.48299+25.6752L8.48299+13.7819L9.79932+13.7819L11.1156+13.7819L11.1156+25.6752ZM27.4966+23.5313L27.4966+30.2181L21.4025+30.2181L15.3084+30.2181L15.3084+23.5313L15.3084+16.8445L21.4025+16.8445L27.4966+16.8445L27.4966+23.5313Z" opacity="1" fill="#000000"/>
<path d="M17.8435+23.4803L17.8435+27.6659L21.4025+27.6659L24.9615+27.6659L24.9615+23.4803L24.9615+19.2947L21.4025+19.2947L17.8435+19.2947L17.8435+23.4803Z" opacity="1" fill="#000000"/>
</g>
</g>
</svg>
