<svg height="44pt" xmlns="http://www.w3.org/2000/svg" width="43pt" viewBox="0 0 43 44">
  <g>
    <path d="M0 21.8979L0 43.7958H21.4025H42.805V21.8979V0H21.4025H0V21.8979ZM11.1351 7.46264C12.0224 8.23851 14.4991 10.6172 15.2011 11.3726L15.7277 11.9341L14.8209 12.9346C14.3138 13.4858 13.8751 13.935 13.8361 13.935C13.8068 13.935 12.6367 12.761 11.2327 11.3318L8.69751 8.71833L9.47755 7.77912C9.90658 7.25847 10.2966 6.83991 10.3454 6.83991C10.3844 6.83991 10.7451 7.11554 11.1351 7.46264ZM34.3025 21.8162L34.2732 34.6589L34.0587 35.3021C33.7857 36.1494 33.4542 36.5782 32.8302 36.8947C32.0111 37.3234 31.0166 37.4664 29.0762 37.4561C28.1206 37.4459 27.0188 37.4153 26.619 37.3745L25.8975 37.3132L25.6342 35.9555L25.3807 34.5875L25.683 34.6487C25.8488 34.6794 26.8433 34.7406 27.8964 34.7712C30.0122 34.8529 30.6168 34.761 31.1043 34.3323C31.6991 33.8116 31.6893 34.1077 31.6893 22.439V11.8422H24.6689H17.6485V10.413V8.98376H25.9853H34.3317L34.3025 21.8162ZM11.1156 25.6752V37.5684H9.79932H8.48299V25.6752V13.7819H9.79932H11.1156V25.6752ZM27.4966 23.5313V30.2181H21.4025H15.3084V23.5313V16.8445H21.4025H27.4966V23.5313Z" fill="#000000"/>
    <path d="M17.8435 23.4803V27.6659H21.4025H24.9615V23.4803V19.2947H21.4025H17.8435V23.4803Z" fill="#000000"/>
  </g>
</svg>