 <svg version="1.0" xmlns="http://www.w3.org/2000/svg"  width="439.000000pt" height="429.000000pt" viewBox="0 0 439.000000 429.000000"  preserveAspectRatio="xMidYMid meet">  <g transform="translate(0.000000,429.000000) scale(0.100000,-0.100000)" fill="#000000" stroke="none"> <path d="M0 2145 l0 -2145 2195 0 2195 0 0 2145 0 2145 -2195 0 -2195 0 0 -2145z m1142 1414 c91 -76 345 -309 417 -383 l54 -55 -93 -98 c-52 -54 -97 -98 -101 -98 -3 0 -123 115 -267 255 l-260 256 80 92 c44 51 84 92 89 92 4 0 41 -27 81 -61z m2376 -1406 l-3 -1258 -22 -63 c-28 -83 -62 -125 -126 -156 -84 -42 -186 -56 -385 -55 -98 1 -211 4 -252 8 l-74 6 -27 133 -26 134 31 -6 c17 -3 119 -9 227 -12 217 -8 279 1 329 43 61 51 60 22 60 1165 l0 1038 -720 0 -720 0 0 140 0 140 855 0 856 0 -3 -1257z m-2378 -378 l0 -1165 -135 0 -135 0 0 1165 0 1165 135 0 135 0 0 -1165z m1680 210 l0 -655 -625 0 -625 0 0 655 0 655 625 0 625 0 0 -655z"/> <path d="M1830 1990 l0 -410 365 0 365 0 0 410 0 410 -365 0 -365 0 0 -410z"/> </g> </svg> 