<?xml version="1.0" standalone="no"?>
<!DOCTYPE svg PUBLIC "-//W3C//DTD SVG 20010904//EN"
 "http://www.w3.org/TR/2001/REC-SVG-20010904/DTD/svg10.dtd">
<svg version="1.0" xmlns="http://www.w3.org/2000/svg"
 width="300.000000pt" height="293.000000pt" viewBox="0 0 300.000000 293.000000"
 preserveAspectRatio="xMidYMid meet">
<metadata>
Created by potrace 1.10, written by Peter Selinger 2001-2011
</metadata>
<g transform="translate(0.000000,293.000000) scale(0.100000,-0.100000)"
fill="#000000" stroke="none">
<path d="M0 1465 l0 -1465 1500 0 1500 0 0 1465 0 1465 -1500 0 -1500 0 0
-1465z m836 917 c54 -49 137 -125 184 -169 l85 -82 -65 -65 c-35 -36 -67 -66
-70 -66 -3 1 -85 78 -182 173 l-177 172 52 63 c29 34 57 62 63 62 6 0 55 -40
110 -88z m1572 -832 c3 -833 -2 -954 -40 -1022 -46 -86 -184 -119 -423 -102
l-129 9 -13 65 c-7 36 -15 74 -18 86 -4 20 -1 20 180 20 l184 -1 33 33 33 32
3 735 2 735 -490 0 -490 0 0 95 0 95 583 -2 582 -3 3 -775z m-1628 -335 l0
-795 -95 0 -95 0 0 795 0 795 95 0 95 0 0 -795z m1140 140 l0 -445 -425 0
-425 0 0 445 0 445 425 0 425 0 0 -445z"/>
<path d="M1250 1360 l0 -280 250 0 250 0 0 280 0 280 -250 0 -250 0 0 -280z"/>
</g>
</svg>
